<svg width="146" height="81" viewBox="0 0 146 81" fill="none" xmlns="http://www.w3.org/2000/svg">
<g clipPath="url(#clip0_2_55)">
<path d="M92.344 42.3076L91.6284 41.2002L89.2539 42.008L89.6963 42.731L92.8189 47.8314H95.9349L92.3505 42.3076H92.344ZM93.8597 35.6178C93.001 34.8948 91.817 34.53 90.3208 34.53H84.4595V47.8314H87.1982V42.731H90.0541L90.3338 42.5681C91.0819 42.5681 91.752 42.4835 92.344 42.3076C92.9295 42.1382 93.4304 41.8777 93.8597 41.5324C94.7184 40.842 95.1478 39.8453 95.1478 38.5426C95.1478 37.318 94.7184 36.3474 93.8597 35.6244V35.6178ZM87.1982 36.7447H89.989C90.7697 36.7447 91.3486 36.9011 91.7325 37.2203C92.1163 37.5394 92.3049 38.0215 92.3049 38.6794C92.3049 39.3373 92.1163 39.8258 91.7325 40.145C91.3486 40.4577 90.7697 40.614 89.989 40.614H87.1982V36.7447Z" fill="#0A2530"/>
<path d="M106.129 39.8388C105.751 39.1353 105.211 38.5751 104.496 38.1713C103.78 37.7609 102.921 37.559 101.894 37.559C100.866 37.559 100.02 37.7674 99.2459 38.1843C98.4718 38.6012 97.8733 39.2005 97.4439 39.9821C97.0146 40.7638 96.7999 41.7018 96.7999 42.8026C96.7999 43.9035 97.0146 44.8415 97.4439 45.6231C97.8733 46.4048 98.4848 46.9976 99.2654 47.4145C100.053 47.8314 100.976 48.0398 102.03 48.0398C102.72 48.0398 103.357 47.9421 103.956 47.7467C104.554 47.5513 105.068 47.2712 105.504 46.8934C105.94 46.5221 106.265 46.0661 106.48 45.545L104.288 44.6982C104.086 45.102 103.8 45.4212 103.442 45.6427C103.078 45.8707 102.609 45.9879 102.017 45.9879C101.477 45.9879 101.022 45.8707 100.638 45.6427C100.254 45.4147 99.9615 45.0695 99.7533 44.607C99.6297 44.3334 99.5452 44.0273 99.4931 43.669H106.603C106.63 43.4801 106.656 43.2651 106.662 43.0241C106.675 42.7831 106.682 42.5291 106.682 42.2555C106.682 41.3566 106.493 40.5554 106.122 39.8453L106.129 39.8388ZM99.5321 41.7474C99.5777 41.4868 99.6427 41.2458 99.7273 41.0309C99.916 40.5554 100.196 40.1971 100.56 39.9561C100.924 39.7151 101.367 39.5978 101.874 39.5978C102.57 39.5978 103.11 39.8258 103.494 40.2818C103.8 40.6466 103.982 41.1351 104.04 41.7539H99.5191L99.5321 41.7474Z" fill="#0A2530"/>
<path d="M117.806 39.1744C117.493 38.6338 117.064 38.2299 116.518 37.9563C115.978 37.6893 115.353 37.5525 114.657 37.5525C114.052 37.5525 113.499 37.6567 112.998 37.8651C112.497 38.0736 112.068 38.3927 111.717 38.8227C111.528 39.0572 111.372 39.3242 111.235 39.6239L111.138 37.7609H108.659V47.8314H111.417V42.49C111.417 41.819 111.528 41.2784 111.749 40.8745C111.97 40.4707 112.263 40.1775 112.614 40.0017C112.972 39.8193 113.337 39.7281 113.707 39.7281C114.247 39.7281 114.683 39.8909 115.015 40.2231C115.353 40.5488 115.516 41.1416 115.516 42.0014V47.8248H118.274V41.2198C118.274 40.399 118.118 39.7151 117.799 39.1744H117.806Z" fill="#0A2530"/>
<path d="M126.777 45.3691C126.575 45.5385 126.347 45.6818 126.094 45.7795C125.84 45.8772 125.547 45.9293 125.209 45.9293C124.779 45.9293 124.441 45.8186 124.187 45.5971C123.94 45.3756 123.817 45.0239 123.817 44.5419V34.6668L121.058 35.4289V44.9848C121.058 45.7209 121.202 46.3136 121.488 46.7566C121.781 47.1995 122.177 47.5187 122.691 47.7206C123.212 47.9226 123.804 48.0203 124.474 48.0203C125.007 48.0203 125.521 47.9421 126.002 47.7988C126.484 47.649 126.887 47.447 127.206 47.193L126.764 45.3561L126.777 45.3691ZM121.065 37.7544V39.8128H127.043V37.7544H121.065Z" fill="#0A2530"/>
<path d="M93.0918 51.3814V64.6827H95.8696V51.3814H93.0918ZM85.8449 56.84V59.0743H94.536V56.84H85.8449ZM84.4527 51.3814V64.6827H87.2305V51.3814H84.4527Z" fill="#0A2530"/>
<path d="M107.768 56.8205C107.332 56.0388 106.727 55.4461 105.959 55.0292C105.185 54.6123 104.294 54.4039 103.273 54.4039C102.251 54.4039 101.373 54.6123 100.599 55.0292C99.8249 55.4461 99.2134 56.0388 98.7775 56.8205C98.3417 57.6022 98.1205 58.5402 98.1205 59.641C98.1205 60.7419 98.3352 61.6668 98.7775 62.455C99.2134 63.2367 99.8184 63.8425 100.599 64.2593C101.38 64.6762 102.264 64.8847 103.273 64.8847C104.281 64.8847 105.192 64.6762 105.959 64.2593C106.734 63.8425 107.332 63.2367 107.768 62.455C108.204 61.6668 108.425 60.7288 108.425 59.641C108.425 58.5532 108.21 57.6022 107.768 56.8205ZM105.361 61.4128C105.172 61.8818 104.906 62.2335 104.548 62.4745C104.19 62.709 103.767 62.8263 103.266 62.8263C102.765 62.8263 102.323 62.709 101.972 62.4745C101.614 62.24 101.347 61.8883 101.152 61.4128C100.963 60.9438 100.872 60.351 100.872 59.641C100.872 58.931 100.963 58.3382 101.152 57.8692C101.341 57.4002 101.614 57.0485 101.972 56.8075C102.329 56.573 102.759 56.4557 103.266 56.4557C103.774 56.4557 104.19 56.573 104.548 56.8075C104.906 57.042 105.172 57.3937 105.361 57.8692C105.55 58.3382 105.641 58.931 105.641 59.641C105.641 60.351 105.55 60.9438 105.361 61.4128Z" fill="#0A2530"/>
<path d="M117.519 54.6058V60.0253C117.519 60.4943 117.461 60.9047 117.337 61.2434C117.214 61.5887 117.051 61.8688 116.843 62.0772C116.635 62.2922 116.401 62.4485 116.127 62.5527C115.861 62.6504 115.587 62.7025 115.301 62.7025C114.696 62.7025 114.234 62.5527 113.909 62.2466C113.59 61.9469 113.428 61.3998 113.428 60.6246V54.5993H110.669V61.289C110.669 62.1358 110.832 62.8263 111.144 63.3539C111.463 63.8881 111.886 64.2724 112.426 64.5134C112.966 64.7544 113.564 64.8782 114.241 64.8782C115.06 64.8782 115.757 64.7218 116.342 64.4027C116.928 64.09 117.383 63.5949 117.721 62.924L117.819 64.6762H120.278V54.6058H117.519Z" fill="#0A2530"/>
<path d="M131.018 59.8104C130.589 59.3349 129.88 58.9896 128.884 58.7942L126.829 58.3708C126.334 58.2666 125.996 58.1363 125.807 57.98C125.619 57.8302 125.528 57.6413 125.528 57.4263C125.528 57.2113 125.593 57.0355 125.729 56.8922C125.866 56.7488 126.068 56.6381 126.334 56.5599C126.601 56.4818 126.92 56.4427 127.297 56.4427C127.817 56.4427 128.318 56.5665 128.793 56.814C129.268 57.0615 129.659 57.4198 129.951 57.8888L131.597 56.2799C131.168 55.661 130.582 55.192 129.841 54.8794C129.099 54.5667 128.221 54.4039 127.213 54.4039C126.204 54.4039 125.411 54.5537 124.753 54.8598C124.096 55.1595 123.602 55.5568 123.277 56.0388C122.951 56.5274 122.782 57.042 122.782 57.5891C122.782 58.3708 123.03 59.0026 123.517 59.4977C124.005 59.9862 124.832 60.351 126.003 60.592L127.772 60.9568C128.214 61.048 128.507 61.1718 128.657 61.3281C128.806 61.4844 128.878 61.6668 128.878 61.8818C128.878 62.2205 128.722 62.4615 128.403 62.6178C128.091 62.7677 127.668 62.8458 127.147 62.8458C126.406 62.8458 125.768 62.696 125.235 62.3833C124.695 62.0707 124.272 61.6798 123.947 61.1978L122.359 62.8133C122.88 63.4712 123.563 63.9858 124.402 64.344C125.241 64.7088 126.172 64.8847 127.186 64.8847C128.149 64.8847 128.969 64.7414 129.632 64.4548C130.296 64.1616 130.803 63.7643 131.142 63.2692C131.487 62.7677 131.656 62.1879 131.656 61.5431C131.656 60.8982 131.441 60.2989 131.012 59.8169L131.018 59.8104Z" fill="#0A2530"/>
<path d="M142.572 56.6902C142.194 55.9802 141.654 55.4265 140.939 55.0162C140.223 54.6058 139.358 54.4039 138.337 54.4039C137.315 54.4039 136.463 54.6123 135.689 55.0292C134.915 55.4461 134.316 56.0388 133.887 56.8205C133.458 57.6022 133.243 58.5402 133.243 59.641C133.243 60.7419 133.458 61.6799 133.887 62.4615C134.316 63.2432 134.928 63.8425 135.709 64.2593C136.496 64.6762 137.419 64.8847 138.473 64.8847C139.163 64.8847 139.8 64.787 140.399 64.5916C140.997 64.3961 141.511 64.1095 141.947 63.7317C142.383 63.3539 142.708 62.9045 142.923 62.3833L140.731 61.5365C140.529 61.9404 140.243 62.2531 139.885 62.4811C139.521 62.709 139.052 62.8198 138.46 62.8198C137.92 62.8198 137.465 62.7025 137.081 62.4811C136.697 62.2531 136.405 61.9013 136.196 61.4388C136.073 61.1718 135.988 60.8591 135.936 60.5008H143.047C143.073 60.3119 143.092 60.097 143.105 59.856C143.118 59.615 143.125 59.3609 143.125 59.0938C143.125 58.1949 142.936 57.3872 142.565 56.6837L142.572 56.6902ZM135.975 58.5923C136.021 58.3317 136.086 58.0907 136.17 57.8757C136.359 57.4002 136.639 57.042 137.003 56.801C137.367 56.5534 137.81 56.4362 138.317 56.4362C139.013 56.4362 139.553 56.6642 139.937 57.1201C140.243 57.4849 140.425 57.9735 140.483 58.5923H135.962H135.975Z" fill="#0A2530"/>
<path d="M90.223 75.2092L89.8457 74.6359L89.0455 75.1701L89.1301 75.3069L92.7796 80.8176H93.905L90.223 75.2092ZM92.1225 69.1773C91.3809 68.5455 90.3791 68.2263 89.1236 68.2263H84.4592V80.8111H85.4155V75.359H89.013L89.1105 75.3004H89.1366C89.5269 75.3004 89.8847 75.2678 90.2295 75.2092C90.9776 75.0724 91.6086 74.7988 92.116 74.3754C92.8642 73.7631 93.2415 72.8967 93.2415 71.7959C93.2415 70.695 92.8707 69.8157 92.129 69.1838L92.1225 69.1773ZM91.4395 73.7761C90.8995 74.2386 90.1189 74.4666 89.104 74.4666H85.409V69.1057H89.104C90.1189 69.1057 90.893 69.3402 91.4395 69.8026C91.9794 70.2651 92.2461 70.9295 92.2461 71.7959C92.2461 72.6622 91.9729 73.3201 91.4395 73.7761Z" fill="#0A2530"/>
<path d="M103.526 73.3853C103.143 72.6427 102.603 72.0695 101.926 71.6786C101.25 71.2813 100.462 71.0859 99.5777 71.0859C98.693 71.0859 97.9058 71.2813 97.2293 71.6786C96.5527 72.076 96.0127 72.6427 95.6289 73.3853C95.2451 74.1279 95.05 75.0137 95.05 76.0429C95.05 77.0721 95.2451 77.958 95.6289 78.7071C96.0127 79.4497 96.5527 80.0229 97.2293 80.4137C97.9058 80.8111 98.693 81 99.5777 81C100.462 81 101.25 80.8046 101.926 80.4137C102.603 80.0164 103.143 79.4497 103.526 78.7071C103.91 77.9645 104.105 77.0786 104.105 76.0429C104.105 75.0072 103.91 74.1279 103.526 73.3853ZM102.713 78.2577C102.414 78.8765 101.998 79.3585 101.464 79.6842C100.931 80.0164 100.306 80.1858 99.5777 80.1858C98.8491 80.1858 98.2246 80.0164 97.6911 79.6842C97.1577 79.352 96.7413 78.8765 96.4421 78.2577C96.1429 77.6323 95.9932 76.8963 95.9932 76.0429C95.9932 75.1896 96.1429 74.4405 96.4421 73.8217C96.7413 73.2094 97.1577 72.7339 97.6911 72.4017C98.2246 72.0695 98.8556 71.9066 99.5777 71.9066C100.3 71.9066 100.931 72.076 101.464 72.4017C101.998 72.7339 102.414 73.2094 102.713 73.8217C103.013 74.4405 103.156 75.1766 103.156 76.0429C103.156 76.9093 103.006 77.6323 102.713 78.2577Z" fill="#0A2530"/>
<path d="M112.868 76.779C112.51 76.3947 111.879 76.1016 110.982 75.9127L108.698 75.4111C108.054 75.2743 107.599 75.0528 107.345 74.7532C107.091 74.4536 106.961 74.1213 106.961 73.7566C106.961 73.3918 107.072 73.0856 107.293 72.8121C107.514 72.5385 107.826 72.317 108.23 72.1607C108.627 72.0043 109.095 71.9197 109.628 71.9197C110.331 71.9197 110.93 72.076 111.45 72.3821C111.964 72.6883 112.315 73.1768 112.504 73.8478L113.304 73.3332C113.05 72.5841 112.608 72.0174 111.99 71.6461C111.372 71.2683 110.578 71.0859 109.628 71.0859C108.906 71.0859 108.275 71.2096 107.735 71.4572C107.195 71.7047 106.773 72.0304 106.467 72.4408C106.161 72.8446 106.005 73.3071 106.005 73.8152C106.005 74.421 106.2 74.9421 106.584 75.3655C106.968 75.7954 107.625 76.1016 108.536 76.2905L110.767 76.766C111.411 76.9028 111.853 77.1112 112.088 77.3848C112.322 77.6584 112.439 77.9776 112.439 78.3488C112.439 78.896 112.198 79.339 111.723 79.6646C111.248 79.9969 110.591 80.1597 109.752 80.1597C108.913 80.1597 108.178 79.9838 107.592 79.6321C107 79.2868 106.59 78.7918 106.363 78.1534L105.543 78.7071C105.849 79.4432 106.369 80.0099 107.117 80.4007C107.859 80.7981 108.711 80.987 109.681 80.987C110.429 80.987 111.079 80.8762 111.639 80.6548C112.198 80.4333 112.627 80.1141 112.933 79.6907C113.239 79.2738 113.389 78.7788 113.389 78.2055C113.389 77.6323 113.213 77.1503 112.855 76.7595L112.868 76.779Z" fill="#0A2530"/>
<path d="M123.758 80.1467C123.147 80.1467 122.847 79.808 122.847 79.137V74.3689C122.847 73.6458 122.698 73.04 122.405 72.558C122.112 72.076 121.702 71.7112 121.176 71.4637C120.649 71.2162 120.037 71.0924 119.334 71.0924C118.372 71.0924 117.559 71.3008 116.908 71.7112C116.257 72.1216 115.789 72.7078 115.509 73.4569L116.29 73.952C116.544 73.2289 116.928 72.7143 117.448 72.4017C117.968 72.089 118.593 71.9327 119.315 71.9327C120.141 71.9327 120.772 72.1672 121.221 72.6166C121.663 73.0791 121.891 73.7175 121.891 74.5447V75.1766L118.138 75.9192C117.272 76.082 116.609 76.3882 116.127 76.8246C115.652 77.261 115.412 77.8342 115.412 78.5508C115.412 79.0849 115.548 79.5344 115.815 79.8991C116.082 80.2639 116.453 80.5375 116.921 80.7264C117.389 80.9153 117.923 81.013 118.521 81.013C119.029 81.013 119.536 80.9283 120.044 80.759C120.551 80.5896 121 80.3225 121.39 79.9578C121.592 79.7689 121.754 79.5539 121.885 79.3129C121.904 79.6842 121.982 79.9838 122.119 80.2118C122.275 80.4789 122.483 80.6678 122.737 80.785C122.991 80.9023 123.264 80.9609 123.556 80.9609C123.895 80.9609 124.174 80.9023 124.396 80.785L124.448 80.0229C124.259 80.1141 124.031 80.1597 123.765 80.1597L123.758 80.1467ZM120.831 79.5279C120.512 79.7493 120.154 79.9122 119.777 80.0099C119.393 80.1141 119.016 80.1597 118.651 80.1597C117.929 80.1597 117.37 80.0099 116.973 79.7102C116.583 79.4106 116.381 79.0002 116.381 78.4791C116.381 77.958 116.563 77.5737 116.934 77.2806C117.305 76.9874 117.858 76.766 118.612 76.6162L121.891 75.9648V77.4564C121.891 77.9385 121.794 78.3488 121.605 78.6876C121.416 79.0263 121.156 79.2999 120.831 79.5279Z" fill="#0A2530"/>
<path d="M131.096 71.164C130.888 71.1119 130.66 71.0859 130.413 71.0859C129.665 71.0859 129.021 71.2813 128.488 71.6786C127.954 72.076 127.564 72.6101 127.33 73.2811L127.213 71.2748H126.412V80.8111H127.369V75.4697C127.369 74.7858 127.505 74.18 127.772 73.6523C128.039 73.1247 128.383 72.7143 128.819 72.4147C129.249 72.1151 129.711 71.9653 130.185 71.9653C130.517 71.9653 130.764 71.9913 130.927 72.0434C131.096 72.0955 131.246 72.1672 131.389 72.2519L131.597 71.4116C131.467 71.3008 131.304 71.2162 131.103 71.164H131.096Z" fill="#0A2530"/>
<path d="M133.243 71.2748V80.8111H134.193V71.2748H133.243ZM134.297 68.0439C134.154 67.8941 133.959 67.8224 133.718 67.8224C133.477 67.8224 133.282 67.8941 133.139 68.0439C132.989 68.1872 132.918 68.3826 132.918 68.6236C132.918 68.8647 132.989 69.0601 133.139 69.2034C133.282 69.3532 133.477 69.4248 133.718 69.4248C133.959 69.4248 134.154 69.3532 134.297 69.2034C134.446 69.0601 134.518 68.8647 134.518 68.6236C134.518 68.3826 134.446 68.1872 134.297 68.0439Z" fill="#0A2530"/>
<path d="M145.415 73.3853C145.031 72.6427 144.497 72.0695 143.821 71.6786C143.138 71.2813 142.357 71.0859 141.466 71.0859C140.575 71.0859 139.794 71.2813 139.117 71.6786C138.441 72.076 137.901 72.6427 137.517 73.3853C137.133 74.1279 136.938 75.0137 136.938 76.0429C136.938 77.0721 137.133 77.958 137.517 78.7071C137.901 79.4497 138.441 80.0229 139.117 80.4137C139.794 80.8111 140.581 81 141.466 81C142.35 81 143.138 80.8046 143.821 80.4137C144.497 80.0164 145.031 79.4497 145.415 78.7071C145.805 77.9645 145.993 77.0786 145.993 76.0429C145.993 75.0072 145.805 74.1279 145.415 73.3853ZM144.601 78.2577C144.302 78.8765 143.886 79.3585 143.352 79.6842C142.819 80.0164 142.194 80.1858 141.466 80.1858C140.737 80.1858 140.113 80.0164 139.579 79.6842C139.046 79.352 138.629 78.8765 138.33 78.2577C138.031 77.6323 137.881 76.8963 137.881 76.0429C137.881 75.1896 138.031 74.4405 138.33 73.8217C138.629 73.2094 139.046 72.7339 139.579 72.4017C140.113 72.0695 140.744 71.9066 141.466 71.9066C142.188 71.9066 142.819 72.076 143.352 72.4017C143.886 72.7339 144.302 73.2094 144.601 73.8217C144.901 74.4405 145.05 75.1766 145.05 76.0429C145.05 76.9093 144.901 77.6323 144.601 78.2577Z" fill="#0A2530"/>
<path d="M37.1261 0V55.7718L0 72.7339V51.2511L37.1261 0Z" fill="#0A2530"/>
<path d="M62.4841 33.8331V51.8765L44.4512 45.8251V18.1216L62.4841 33.8331Z" fill="#0A2530"/>
<path d="M69.8091 72.8642L52.9082 80.6287L34.3028 74.3819L20.7066 80.6287L0 80.8176L39.4746 62.683L69.8091 72.8642Z" fill="#0A2530"/>
</g>
<defs>
<clipPath id="clip0_2_55">
<rect width="146" height="81" fill="white"/>
</clipPath>
</defs>
</svg>
