<svg width="85" height="27" viewBox="0 0 85 27" fill="none" xmlns="http://www.w3.org/2000/svg">
<rect width="85" height="27" rx="5" fill="#a1d1cf"/>
<path d="M31.02 18C30.98 18 30.944 17.988 30.912 17.964C30.888 17.932 30.876 17.896 30.876 17.856V9.744C30.876 9.704 30.888 9.672 30.912 9.648C30.944 9.616 30.98 9.6 31.02 9.6H32.124C32.164 9.6 32.196 9.616 32.22 9.648C32.252 9.672 32.268 9.704 32.268 9.744V17.856C32.268 17.896 32.252 17.932 32.22 17.964C32.196 17.988 32.164 18 32.124 18H31.02ZM36.8246 11.772C37.4726 11.772 37.9886 11.964 38.3726 12.348C38.7646 12.732 38.9606 13.256 38.9606 13.92V17.856C38.9606 17.896 38.9446 17.932 38.9126 17.964C38.8886 17.988 38.8566 18 38.8166 18H37.7126C37.6726 18 37.6366 17.988 37.6046 17.964C37.5806 17.932 37.5686 17.896 37.5686 17.856V14.208C37.5686 13.84 37.4646 13.544 37.2566 13.32C37.0486 13.088 36.7726 12.972 36.4286 12.972C36.0846 12.972 35.8046 13.084 35.5886 13.308C35.3806 13.532 35.2766 13.828 35.2766 14.196V17.856C35.2766 17.896 35.2606 17.932 35.2286 17.964C35.2046 17.988 35.1726 18 35.1326 18H34.0286C33.9886 18 33.9526 17.988 33.9206 17.964C33.8966 17.932 33.8846 17.896 33.8846 17.856V12.012C33.8846 11.972 33.8966 11.94 33.9206 11.916C33.9526 11.884 33.9886 11.868 34.0286 11.868H35.1326C35.1726 11.868 35.2046 11.884 35.2286 11.916C35.2606 11.94 35.2766 11.972 35.2766 12.012V12.396C35.2766 12.42 35.2846 12.436 35.3006 12.444C35.3166 12.452 35.3286 12.444 35.3366 12.42C35.6646 11.988 36.1606 11.772 36.8246 11.772ZM44.168 12.012C44.168 11.972 44.18 11.94 44.204 11.916C44.236 11.884 44.272 11.868 44.312 11.868H45.416C45.456 11.868 45.488 11.884 45.512 11.916C45.544 11.94 45.56 11.972 45.56 12.012V17.592C45.56 18.592 45.272 19.304 44.696 19.728C44.128 20.16 43.38 20.376 42.452 20.376C42.204 20.376 41.96 20.364 41.72 20.34C41.632 20.332 41.588 20.28 41.588 20.184L41.624 19.2C41.624 19.112 41.68 19.068 41.792 19.068C42.024 19.092 42.232 19.104 42.416 19.104C43.016 19.104 43.456 18.984 43.736 18.744C44.024 18.512 44.168 18.116 44.168 17.556V17.46C44.168 17.436 44.16 17.424 44.144 17.424C44.128 17.416 44.112 17.42 44.096 17.436C43.768 17.788 43.304 17.964 42.704 17.964C42.184 17.964 41.708 17.832 41.276 17.568C40.844 17.304 40.544 16.9 40.376 16.356C40.272 15.98 40.22 15.496 40.22 14.904C40.22 14.24 40.284 13.732 40.412 13.38C40.572 12.892 40.848 12.504 41.24 12.216C41.632 11.92 42.092 11.772 42.62 11.772C43.252 11.772 43.744 11.956 44.096 12.324C44.112 12.348 44.128 12.356 44.144 12.348C44.16 12.34 44.168 12.324 44.168 12.3V12.012ZM44.084 15.96C44.116 15.84 44.136 15.712 44.144 15.576C44.16 15.432 44.168 15.204 44.168 14.892C44.168 14.588 44.16 14.372 44.144 14.244C44.136 14.108 44.112 13.976 44.072 13.848C44.008 13.584 43.876 13.372 43.676 13.212C43.484 13.052 43.236 12.972 42.932 12.972C42.644 12.972 42.4 13.052 42.2 13.212C42 13.372 41.856 13.584 41.768 13.848C41.672 14.072 41.624 14.424 41.624 14.904C41.624 15.4 41.664 15.748 41.744 15.948C41.824 16.204 41.968 16.416 42.176 16.584C42.392 16.744 42.648 16.824 42.944 16.824C43.256 16.824 43.508 16.744 43.7 16.584C43.892 16.424 44.02 16.216 44.084 15.96ZM49.8539 11.796C50.1099 11.796 50.3339 11.848 50.5259 11.952C50.5899 11.984 50.6139 12.044 50.5979 12.132L50.3939 13.212C50.3859 13.308 50.3299 13.336 50.2259 13.296C50.1059 13.256 49.9659 13.236 49.8059 13.236C49.7019 13.236 49.6219 13.24 49.5659 13.248C49.2299 13.264 48.9499 13.384 48.7259 13.608C48.5019 13.824 48.3899 14.108 48.3899 14.46V17.856C48.3899 17.896 48.3739 17.932 48.3419 17.964C48.3179 17.988 48.2859 18 48.2459 18H47.1419C47.1019 18 47.0659 17.988 47.0339 17.964C47.0099 17.932 46.9979 17.896 46.9979 17.856V12.012C46.9979 11.972 47.0099 11.94 47.0339 11.916C47.0659 11.884 47.1019 11.868 47.1419 11.868H48.2459C48.2859 11.868 48.3179 11.884 48.3419 11.916C48.3739 11.94 48.3899 11.972 48.3899 12.012V12.552C48.3899 12.584 48.3939 12.604 48.4019 12.612C48.4179 12.612 48.4339 12.6 48.4499 12.576C48.7859 12.056 49.2539 11.796 49.8539 11.796ZM56.5644 14.244C56.5964 14.444 56.6124 14.668 56.6124 14.916L56.6004 15.288C56.6004 15.384 56.5524 15.432 56.4564 15.432H52.7004C52.6604 15.432 52.6404 15.452 52.6404 15.492C52.6644 15.756 52.7004 15.936 52.7484 16.032C52.9404 16.608 53.4084 16.9 54.1524 16.908C54.6964 16.908 55.1284 16.684 55.4484 16.236C55.4804 16.188 55.5204 16.164 55.5684 16.164C55.6004 16.164 55.6284 16.176 55.6524 16.2L56.3964 16.812C56.4684 16.868 56.4804 16.932 56.4324 17.004C56.1844 17.356 55.8524 17.628 55.4364 17.82C55.0284 18.012 54.5724 18.108 54.0684 18.108C53.4444 18.108 52.9124 17.968 52.4724 17.688C52.0404 17.408 51.7244 17.016 51.5244 16.512C51.3404 16.08 51.2484 15.48 51.2484 14.712C51.2484 14.248 51.2964 13.872 51.3924 13.584C51.5524 13.024 51.8524 12.584 52.2924 12.264C52.7404 11.936 53.2764 11.772 53.9004 11.772C55.4764 11.772 56.3644 12.596 56.5644 14.244ZM53.9004 12.972C53.6044 12.972 53.3564 13.048 53.1564 13.2C52.9644 13.344 52.8284 13.548 52.7484 13.812C52.7004 13.948 52.6684 14.124 52.6524 14.34C52.6364 14.38 52.6524 14.4 52.7004 14.4H55.1364C55.1764 14.4 55.1964 14.38 55.1964 14.34C55.1804 14.14 55.1564 13.988 55.1244 13.884C55.0524 13.596 54.9084 13.372 54.6924 13.212C54.4844 13.052 54.2204 12.972 53.9004 12.972ZM60.0709 18.072C59.5669 18.072 59.1229 18 58.7389 17.856C58.3629 17.704 58.0709 17.5 57.8629 17.244C57.6549 16.98 57.5509 16.688 57.5509 16.368V16.26C57.5509 16.22 57.5629 16.188 57.5869 16.164C57.6189 16.132 57.6549 16.116 57.6949 16.116H58.7509C58.7909 16.116 58.8229 16.132 58.8469 16.164C58.8789 16.188 58.8949 16.22 58.8949 16.26V16.284C58.8949 16.484 59.0029 16.66 59.2189 16.812C59.4429 16.956 59.7229 17.028 60.0589 17.028C60.3789 17.028 60.6389 16.964 60.8389 16.836C61.0389 16.7 61.1389 16.532 61.1389 16.332C61.1389 16.148 61.0549 16.012 60.8869 15.924C60.7269 15.828 60.4629 15.728 60.0949 15.624L59.6389 15.48C59.2309 15.36 58.8869 15.232 58.6069 15.096C58.3269 14.96 58.0909 14.776 57.8989 14.544C57.7069 14.304 57.6109 14 57.6109 13.632C57.6109 13.072 57.8309 12.628 58.2709 12.3C58.7109 11.964 59.2909 11.796 60.0109 11.796C60.4989 11.796 60.9269 11.876 61.2949 12.036C61.6629 12.188 61.9469 12.404 62.1469 12.684C62.3469 12.956 62.4469 13.268 62.4469 13.62C62.4469 13.66 62.4309 13.696 62.3989 13.728C62.3749 13.752 62.3429 13.764 62.3029 13.764H61.2829C61.2429 13.764 61.2069 13.752 61.1749 13.728C61.1509 13.696 61.1389 13.66 61.1389 13.62C61.1389 13.412 61.0349 13.24 60.8269 13.104C60.6269 12.96 60.3509 12.888 59.9989 12.888C59.6869 12.888 59.4309 12.948 59.2309 13.068C59.0389 13.18 58.9429 13.34 58.9429 13.548C58.9429 13.74 59.0349 13.888 59.2189 13.992C59.4109 14.088 59.7269 14.196 60.1669 14.316L60.4309 14.388C60.8549 14.516 61.2109 14.648 61.4989 14.784C61.7869 14.912 62.0309 15.096 62.2309 15.336C62.4309 15.568 62.5309 15.872 62.5309 16.248C62.5309 16.816 62.3069 17.264 61.8589 17.592C61.4109 17.912 60.8149 18.072 60.0709 18.072ZM66.0488 11.772C66.5528 11.772 66.9968 11.86 67.3808 12.036C67.7648 12.212 68.0608 12.456 68.2688 12.768C68.4768 13.072 68.5808 13.42 68.5808 13.812V17.856C68.5808 17.896 68.5648 17.932 68.5328 17.964C68.5088 17.988 68.4768 18 68.4368 18H67.3328C67.2928 18 67.2568 17.988 67.2248 17.964C67.2008 17.932 67.1888 17.896 67.1888 17.856V17.472C67.1888 17.448 67.1808 17.436 67.1648 17.436C67.1488 17.428 67.1328 17.432 67.1168 17.448C66.7248 17.88 66.1568 18.096 65.4128 18.096C64.8128 18.096 64.3168 17.944 63.9248 17.64C63.5408 17.336 63.3488 16.884 63.3488 16.284C63.3488 15.66 63.5648 15.176 63.9968 14.832C64.4368 14.48 65.0528 14.304 65.8448 14.304H67.1288C67.1688 14.304 67.1888 14.284 67.1888 14.244V13.956C67.1888 13.644 67.0968 13.404 66.9128 13.236C66.7288 13.06 66.4528 12.972 66.0848 12.972C65.7808 12.972 65.5328 13.028 65.3408 13.14C65.1568 13.244 65.0408 13.392 64.9928 13.584C64.9688 13.68 64.9128 13.72 64.8248 13.704L63.6608 13.56C63.6208 13.552 63.5848 13.54 63.5528 13.524C63.5288 13.5 63.5208 13.472 63.5288 13.44C63.5928 12.952 63.8528 12.552 64.3088 12.24C64.7728 11.928 65.3528 11.772 66.0488 11.772ZM65.7608 16.992C66.1528 16.992 66.4888 16.888 66.7688 16.68C67.0488 16.472 67.1888 16.208 67.1888 15.888V15.324C67.1888 15.284 67.1688 15.264 67.1288 15.264H66.1208C65.6968 15.264 65.3608 15.344 65.1128 15.504C64.8728 15.664 64.7528 15.892 64.7528 16.188C64.7528 16.444 64.8448 16.644 65.0288 16.788C65.2208 16.924 65.4648 16.992 65.7608 16.992ZM72.8344 11.796C73.0904 11.796 73.3144 11.848 73.5064 11.952C73.5704 11.984 73.5944 12.044 73.5784 12.132L73.3744 13.212C73.3664 13.308 73.3104 13.336 73.2064 13.296C73.0864 13.256 72.9464 13.236 72.7864 13.236C72.6824 13.236 72.6024 13.24 72.5464 13.248C72.2104 13.264 71.9304 13.384 71.7064 13.608C71.4824 13.824 71.3704 14.108 71.3704 14.46V17.856C71.3704 17.896 71.3544 17.932 71.3224 17.964C71.2984 17.988 71.2664 18 71.2264 18H70.1224C70.0824 18 70.0464 17.988 70.0144 17.964C69.9904 17.932 69.9784 17.896 69.9784 17.856V12.012C69.9784 11.972 69.9904 11.94 70.0144 11.916C70.0464 11.884 70.0824 11.868 70.1224 11.868H71.2264C71.2664 11.868 71.2984 11.884 71.3224 11.916C71.3544 11.94 71.3704 11.972 71.3704 12.012V12.552C71.3704 12.584 71.3744 12.604 71.3824 12.612C71.3984 12.612 71.4144 12.6 71.4304 12.576C71.7664 12.056 72.2344 11.796 72.8344 11.796Z" fill="#212529"/>
<path d="M18 21V19.4444H23.4444V8.55556H18V7H23.4444C23.8722 7 24.2386 7.15244 24.5434 7.45733C24.8483 7.76222 25.0005 8.1283 25 8.55556V19.4444C25 19.8722 24.8476 20.2386 24.5427 20.5434C24.2378 20.8483 23.8717 21.0005 23.4444 21H18ZM16.4444 17.8889L15.375 16.7611L17.3583 14.7778H11V13.2222H17.3583L15.375 11.2389L16.4444 10.1111L20.3333 14L16.4444 17.8889Z" fill="#212529"/>
</svg>